<svg xmlns="http://www.w3.org/2000/svg" xmlns:xlink="http://www.w3.org/1999/xlink" viewBox="0 0 470 363"><defs><style>.cls-1{isolation:isolate;}.cls-2{fill:url(#linear-gradient);}.cls-17,.cls-24,.cls-27,.cls-3,.cls-7{mix-blend-mode:multiply;}.cls-3{fill:url(#linear-gradient-2);}.cls-15,.cls-25,.cls-4{fill:#fff;}.cls-5{fill:#599446;}.cls-6{fill:#b91f22;}.cls-7{fill:#cdcfd0;}.cls-8{fill:#385a1e;}.cls-9{fill:#7f7f81;}.cls-11,.cls-20,.cls-9{mix-blend-mode:screen;}.cls-10{fill:#23361a;}.cls-11,.cls-21{fill:#434244;}.cls-12{fill:#e8f6f1;}.cls-13{fill:#3f3f3f;}.cls-14{fill:#2a2a2a;}.cls-15,.cls-22{font-size:35.54px;}.cls-15,.cls-22,.cls-25,.cls-30{font-family:BebasNeueBold, Bebas Neue;font-weight:700;}.cls-16{fill:url(#linear-gradient-3);}.cls-17{fill:url(#linear-gradient-4);}.cls-18,.cls-22{fill:#cfb158;}.cls-19{fill:#552d0b;}.cls-23{fill:url(#linear-gradient-5);}.cls-24{fill:url(#linear-gradient-6);}.cls-25{font-size:36.36px;}.cls-26{fill:url(#linear-gradient-7);}.cls-27{fill:url(#linear-gradient-8);}.cls-28,.cls-30{fill:#2e3369;}.cls-29{fill:#634d12;}.cls-30{font-size:38.84px;}</style><linearGradient id="linear-gradient" x1="10.08" y1="187.59" x2="104.45" y2="187.59" gradientUnits="userSpaceOnUse"><stop offset="0" stop-color="#619e28"/><stop offset="1" stop-color="#bbe337"/></linearGradient><linearGradient id="linear-gradient-2" x1="57.27" y1="31.29" x2="57.27" y2="349.56" gradientUnits="userSpaceOnUse"><stop offset="0" stop-color="#a1a696"/><stop offset="0.03" stop-color="#acb1a3" stop-opacity="0.88"/><stop offset="0.12" stop-color="#c5c9bf" stop-opacity="0.61"/><stop offset="0.2" stop-color="#dadcd6" stop-opacity="0.39"/><stop offset="0.28" stop-color="#eaebe8" stop-opacity="0.22"/><stop offset="0.37" stop-color="#f6f6f5" stop-opacity="0.1"/><stop offset="0.45" stop-color="#fdfdfc" stop-opacity="0.02"/><stop offset="0.53" stop-color="#fff" stop-opacity="0"/><stop offset="0.76" stop-color="#d3d5ce" stop-opacity="0.47"/><stop offset="1" stop-color="#a1a696"/></linearGradient><linearGradient id="linear-gradient-3" x1="129.24" y1="187.59" x2="223.61" y2="187.59" gradientUnits="userSpaceOnUse"><stop offset="0" stop-color="#a55616"/><stop offset="1" stop-color="#e7b938"/></linearGradient><linearGradient id="linear-gradient-4" x1="176.42" y1="25.17" x2="176.42" y2="351.21" gradientUnits="userSpaceOnUse"><stop offset="0" stop-color="#c6a638"/><stop offset="0.53" stop-color="#fff" stop-opacity="0"/><stop offset="0.72" stop-color="#e9dcb1" stop-opacity="0.39"/><stop offset="1" stop-color="#c6a638"/></linearGradient><linearGradient id="linear-gradient-5" x1="245.09" y1="187.59" x2="346.06" y2="187.59" gradientUnits="userSpaceOnUse"><stop offset="0" stop-color="#373739"/><stop offset="1" stop-color="#696969"/></linearGradient><linearGradient id="linear-gradient-6" x1="295.58" y1="30.85" x2="295.58" y2="346.46" xlink:href="#linear-gradient-2"/><linearGradient id="linear-gradient-7" x1="367.55" y1="187.59" x2="461.92" y2="187.59" gradientUnits="userSpaceOnUse"><stop offset="0" stop-color="#e8ac4a"/><stop offset="1" stop-color="#f6e45f"/></linearGradient><linearGradient id="linear-gradient-8" x1="414.73" y1="33.37" x2="414.73" y2="347.01" gradientUnits="userSpaceOnUse"><stop offset="0" stop-color="#f3d674"/><stop offset="0.53" stop-color="#fff" stop-opacity="0"/><stop offset="0.69" stop-color="#fbf2d2" stop-opacity="0.32"/><stop offset="1" stop-color="#f3d674"/></linearGradient></defs><title>Artboard 1BEER</title><g class="cls-1"><g id="OBJECT"><path class="cls-2" d="M93.3,142.87h0a64,64,0,0,1-11-32.3l-4-67.81a21.93,21.93,0,0,0,.29-20.69l-1.16-2.25H37.17L36,22.07a21.93,21.93,0,0,0,.29,20.69l-4,67.81a64,64,0,0,1-11,32.3h0A64,64,0,0,0,10.08,179V342a13.35,13.35,0,0,0,13.35,13.35H91.1A13.35,13.35,0,0,0,104.45,342V179A64,64,0,0,0,93.3,142.87Z"/><path class="cls-3" d="M93.3,142.87h0a64,64,0,0,1-11-32.3l-4-67.81a21.93,21.93,0,0,0,.29-20.69l-1.16-2.25H37.17L36,22.07a21.93,21.93,0,0,0,.29,20.69l-4,67.81a64,64,0,0,1-11,32.3h0A64,64,0,0,0,10.08,179V342a13.35,13.35,0,0,0,13.35,13.35H91.1A13.35,13.35,0,0,0,104.45,342V179A64,64,0,0,0,93.3,142.87Z"/><polygon class="cls-4" points="33.48 90.24 81.05 90.24 78.24 42.76 36.3 42.76 33.48 90.24"/><polygon class="cls-5" points="35.86 50.13 78.67 50.13 78.42 45.76 36.12 45.76 35.86 50.13"/><polygon class="cls-5" points="80.62 82.87 33.91 82.87 33.66 87.24 80.88 87.24 80.62 82.87"/><polygon class="cls-6" points="57.27 54.97 61.01 62.56 69.39 63.78 63.33 69.69 64.76 78.03 57.27 74.09 49.77 78.03 51.2 69.69 45.15 63.78 53.52 62.56 57.27 54.97"/><path class="cls-7" d="M56.09,130.27c-8.61-7.66-13.32-10.21-14.65-21.66-1.9-16.25-4.88-45.94-5.63-57.68l-3.54,59.64a64,64,0,0,1-11,32.3h0A64,64,0,0,0,10.08,179V342a13.35,13.35,0,0,0,13.35,13.35H37.3A13.35,13.35,0,0,1,24,342V179a64,64,0,0,1,2.33-17.11,30.54,30.54,0,0,1,22-21.19C55.55,138.79,62,135.55,56.09,130.27Z"/><path class="cls-8" d="M35.81,50.94l.49-8.18C35.47,41.27,35.41,44.74,35.81,50.94Z"/><path class="cls-9" d="M90.58,342V179a64,64,0,0,0-11.15-36.09h0C67.28,123,81.79,36.35,78.24,42.76l4,67.81a64,64,0,0,0,11,32.3h0A64,64,0,0,1,104.45,179V342A13.35,13.35,0,0,1,91.1,355.36H77.23A13.35,13.35,0,0,0,90.58,342Z"/><path class="cls-10" d="M91.1,357.54H23.43A15.55,15.55,0,0,1,7.9,342V179a65.88,65.88,0,0,1,11.53-37.32,61.8,61.8,0,0,0,10.66-31.19l4-67.2a24.06,24.06,0,0,1,0-22.18l1.77-3.43H78.69l1.77,3.43a24.06,24.06,0,0,1,0,22.18l4,67.2a61.8,61.8,0,0,0,10.66,31.2h0A65.88,65.88,0,0,1,106.64,179V342A15.55,15.55,0,0,1,91.1,357.54ZM38.5,22l-.55,1.07a19.7,19.7,0,0,0,.26,18.63l.31.55L34.45,110.7A66.17,66.17,0,0,1,23,144.11,61.53,61.53,0,0,0,12.27,179V342a11.18,11.18,0,0,0,11.17,11.17H91.1A11.18,11.18,0,0,0,102.27,342V179A61.53,61.53,0,0,0,91.5,144.11a66.16,66.16,0,0,1-11.42-33.4L76,42.26l.31-.55a19.7,19.7,0,0,0,.26-18.63L76,22Z"/><path class="cls-11" d="M40.28,123.49h0a3,3,0,0,1-2.22-3.6,74.23,74.23,0,0,0,1.56-11.34l3-51.41a3.06,3.06,0,0,1,3.23-2.87h0a3.06,3.06,0,0,1,2.87,3.23l-3,51.41A80.3,80.3,0,0,1,44,121.17,3.07,3.07,0,0,1,40.28,123.49Z"/><path class="cls-11" d="M23.19,295.75h0a3.06,3.06,0,0,1-3.06-3.06V179a53.67,53.67,0,0,1,7.67-27.71,3.05,3.05,0,0,1,4.34-.92h0a3.07,3.07,0,0,1,.88,4.12A47.59,47.59,0,0,0,26.25,179V292.7A3.06,3.06,0,0,1,23.19,295.75Z"/><path class="cls-12" d="M72.27,8.64h-30a12.7,12.7,0,0,0-12.7,12.7h0a5.12,5.12,0,0,0,5.12,5.12H79.85A5.12,5.12,0,0,0,85,21.34h0A12.7,12.7,0,0,0,72.27,8.64Z"/><path class="cls-10" d="M79.85,28.65H34.69a7.32,7.32,0,0,1-7.31-7.31A14.9,14.9,0,0,1,42.26,6.46h30A14.9,14.9,0,0,1,87.15,21.34,7.32,7.32,0,0,1,79.85,28.65ZM42.26,10.83A10.53,10.53,0,0,0,31.75,21.34a2.94,2.94,0,0,0,2.94,2.94H79.85a2.94,2.94,0,0,0,2.94-2.94A10.53,10.53,0,0,0,72.27,10.83Z"/><path class="cls-10" d="M63.24,20.67a4,4,0,0,0-4,4h8.08A4,4,0,0,0,63.24,20.67Z"/><path class="cls-10" d="M51.3,20.67a4,4,0,0,0-4,4h8.08A4,4,0,0,0,51.3,20.67Z"/><path class="cls-10" d="M75.18,20.67a4,4,0,0,0-4,4h8.08A4,4,0,0,0,75.18,20.67Z"/><path class="cls-10" d="M39.35,20.67a4,4,0,0,0-4,4h8.08A4,4,0,0,0,39.35,20.67Z"/><path class="cls-10" d="M57.27,346.54a239.41,239.41,0,0,0-44.15,3.95,13.32,13.32,0,0,0,10.31,4.88H91.1a13.32,13.32,0,0,0,10.31-4.88A239.41,239.41,0,0,0,57.27,346.54Z"/><rect class="cls-4" x="14.54" y="168.95" width="85.45" height="128.6" rx="42.73" ry="42.73"/><path class="cls-5" d="M35.54,233.25V211.68a21.73,21.73,0,1,1,43.45,0v21.57C79,245.23,35.54,245.23,35.54,233.25Z"/><path class="cls-5" d="M57.27,292.55a37.77,37.77,0,0,1-37.73-37.73V211.67a37.73,37.73,0,1,1,75.45,0v43.15A37.77,37.77,0,0,1,57.27,292.55Zm0-114.6a33.76,33.76,0,0,0-33.73,33.73v43.15a33.73,33.73,0,1,0,67.45,0V211.67A33.77,33.77,0,0,0,57.27,177.95Z"/><path class="cls-6" d="M57.27,286.55a31.76,31.76,0,0,1-31.73-31.73V211.67a31.73,31.73,0,1,1,63.45,0v43.15A31.76,31.76,0,0,1,57.27,286.55Zm0-102.6a27.76,27.76,0,0,0-27.73,27.73v43.15a27.73,27.73,0,1,0,55.45,0V211.67A27.76,27.76,0,0,0,57.27,183.95Z"/><rect class="cls-13" x="17.54" y="215.03" width="79.45" height="36.44"/><polygon class="cls-14" points="17.54 251.47 25.54 255.11 25.54 251.47 17.54 251.47"/><polygon class="cls-14" points="96.99 215.03 88.99 211.38 88.99 215.03 96.99 215.03"/><path class="cls-4" d="M64.84,204.48a6.87,6.87,0,0,0-4.44,1.62,9.88,9.88,0,0,0-3.14-9.57,9.88,9.88,0,0,0-3.14,9.57,6.87,6.87,0,0,0-4.44-1.62H45a6.9,6.9,0,0,0,6.9,6.9H62.59a6.9,6.9,0,0,0,6.9-6.9Z"/><text class="cls-15" transform="translate(29.83 245.34)">BEER</text><polygon class="cls-6" points="57.27 257.36 59.78 262.45 65.39 263.27 61.33 267.23 62.29 272.82 57.27 270.18 52.24 272.82 53.2 267.23 49.14 263.27 54.76 262.45 57.27 257.36"/><polygon class="cls-6" points="73.93 255.11 75.74 258.78 79.79 259.37 76.86 262.23 77.55 266.26 73.93 264.35 70.31 266.26 71 262.23 68.07 259.37 72.12 258.78 73.93 255.11"/><polygon class="cls-6" points="40.6 255.11 42.41 258.78 46.46 259.37 43.53 262.23 44.23 266.26 40.6 264.35 36.98 266.26 37.67 262.23 34.74 259.37 38.79 258.78 40.6 255.11"/><path class="cls-16" d="M211,109.7h0a128.26,128.26,0,0,1-12.43-48l-1.13-19a21.93,21.93,0,0,0,.29-20.69l-1.16-2.25H156.32l-1.16,2.25a21.93,21.93,0,0,0,.29,20.69l-1.13,19a128.26,128.26,0,0,1-12.43,48h0a128.25,128.25,0,0,0-12.66,55.55V342a13.35,13.35,0,0,0,13.35,13.35h67.67A13.35,13.35,0,0,0,223.61,342V165.25A128.26,128.26,0,0,0,211,109.7Z"/><path class="cls-17" d="M211,109.7h0a128.26,128.26,0,0,1-12.43-48l-1.13-19a21.93,21.93,0,0,0,.29-20.69l-1.16-2.25H156.32l-1.16,2.25a21.93,21.93,0,0,0,.29,20.69l-1.13,19a128.26,128.26,0,0,1-12.43,48h0a128.25,128.25,0,0,0-12.66,55.55V342a13.35,13.35,0,0,0,13.35,13.35h67.67A13.35,13.35,0,0,0,223.61,342V165.25A128.26,128.26,0,0,0,211,109.7Z"/><path class="cls-4" d="M176.42,97.26l24.41-17.77a128.24,128.24,0,0,1-2.31-17.75l-.77-13L176.42,64.26,155.1,48.74l-.77,13A128.25,128.25,0,0,1,152,79.49Z"/><polygon class="cls-18" points="155.1 56.74 176.42 72.26 197.75 56.74 197.75 50.74 176.42 66.26 155.1 50.74 155.1 56.74"/><path class="cls-18" d="M176.42,89.26,153,72.18c-.28,1.78-.59,3.55-.94,5.31l24.41,17.77,24.41-17.77c-.36-1.76-.66-3.54-.94-5.31Z"/><polygon class="cls-19" points="167.69 72.74 155.1 63.57 155.1 67.57 165.84 75.39 167.69 72.74"/><polygon class="cls-19" points="185.29 72.64 187.01 75.39 197.75 67.57 197.75 63.57 185.29 72.64"/><circle class="cls-19" cx="176.42" cy="78.59" r="12.33"/><polygon class="cls-18" points="176.42 71.01 178.65 75.53 183.63 76.25 180.03 79.76 180.88 84.73 176.42 82.38 171.97 84.73 172.82 79.76 169.21 76.25 174.19 75.53 176.42 71.01"/><path class="cls-9" d="M211,109.7h0a128.26,128.26,0,0,1-12.43-48l-.44-7.44c-.24,3.94-.6,8.52-1,13.23a169.68,169.68,0,0,0,3.87,53.27,208.65,208.65,0,0,1,5.19,44.45V342a13.35,13.35,0,0,1-13.35,13.35h17.48A13.35,13.35,0,0,0,223.61,342V165.25A128.26,128.26,0,0,0,211,109.7Z"/><path class="cls-7" d="M168.77,107.12c-4.83-2.69-9.28-6-10.24-11.76-3.79-22.72-3.27-52.6-3.27-52.6l-1.13,19a128.26,128.26,0,0,1-12.43,48h0A128.25,128.25,0,0,0,129,165.25V342a13.35,13.35,0,0,0,13.35,13.35h17.48A13.35,13.35,0,0,1,146.52,342V165.25c0-14.49.68-24.83,4.57-36.46a21.48,21.48,0,0,1,16.43-14.2A4,4,0,0,0,168.77,107.12Z"/><path class="cls-19" d="M210.26,357.54H142.59A15.55,15.55,0,0,1,127.05,342V165.25a131.23,131.23,0,0,1,12.87-56.5,125.47,125.47,0,0,0,12.22-47.14l1.09-18.36a24.06,24.06,0,0,1,0-22.18L155,17.64h42.85l1.77,3.43a24.06,24.06,0,0,1,0,22.18l1.09,18.36a125.5,125.5,0,0,0,12.22,47.14,131.22,131.22,0,0,1,12.87,56.5V342A15.55,15.55,0,0,1,210.26,357.54ZM157.65,22l-.55,1.07a19.7,19.7,0,0,0,.26,18.63l.31.55-1.16,19.61a129.83,129.83,0,0,1-12.64,48.78,126.82,126.82,0,0,0-12.44,54.61V342a11.18,11.18,0,0,0,11.17,11.17h67.67A11.18,11.18,0,0,0,221.42,342V165.25A126.83,126.83,0,0,0,209,110.65h0a129.84,129.84,0,0,1-12.64-48.78l-1.16-19.61.31-.55a19.71,19.71,0,0,0,.26-18.63L195.19,22Z"/><g class="cls-20"><path class="cls-21" d="M167.4,62.52h0a3.05,3.05,0,0,0-3.21,2.82,137.51,137.51,0,0,1-11.92,46,3.05,3.05,0,0,0,1.44,4l0,0a3,3,0,0,0,4.07-1.45,143.6,143.6,0,0,0,12.48-48.16A3,3,0,0,0,167.4,62.52Z"/><path class="cls-21" d="M144.06,145.89h0a3,3,0,0,0-3.53,2.58,117.81,117.81,0,0,0-1.21,16.79v112a3,3,0,0,0,3,3h0a3,3,0,0,0,3-3v-112a111.69,111.69,0,0,1,1.16-16A3,3,0,0,0,144.06,145.89Z"/></g><path class="cls-4" d="M191.43,8.64h-30a12.7,12.7,0,0,0-12.7,12.7h0a5.12,5.12,0,0,0,5.12,5.12H199a5.12,5.12,0,0,0,5.12-5.12h0A12.7,12.7,0,0,0,191.43,8.64Z"/><path class="cls-19" d="M199,28.65H153.84a7.32,7.32,0,0,1-7.31-7.31A14.9,14.9,0,0,1,161.42,6.46h30a14.9,14.9,0,0,1,14.88,14.88A7.32,7.32,0,0,1,199,28.65ZM161.42,10.83A10.53,10.53,0,0,0,150.9,21.34a2.94,2.94,0,0,0,2.94,2.94H199a2.94,2.94,0,0,0,2.94-2.94,10.53,10.53,0,0,0-10.51-10.51Z"/><path class="cls-19" d="M182.39,20.67a4,4,0,0,0-4,4h8.08A4,4,0,0,0,182.39,20.67Z"/><path class="cls-19" d="M170.45,20.67a4,4,0,0,0-4,4h8.08A4,4,0,0,0,170.45,20.67Z"/><path class="cls-19" d="M194.33,20.67a4,4,0,0,0-4,4h8.08A4,4,0,0,0,194.33,20.67Z"/><path class="cls-19" d="M158.51,20.67a4,4,0,0,0-4,4h8.08A4,4,0,0,0,158.51,20.67Z"/><path class="cls-19" d="M176.42,346.54a239.41,239.41,0,0,0-44.15,3.95,13.32,13.32,0,0,0,10.31,4.88h67.67a13.32,13.32,0,0,0,10.31-4.88A239.41,239.41,0,0,0,176.42,346.54Z"/><path class="cls-4" d="M212.85,179h-3.62c-5.66-9.09-18.22-15.42-32.81-15.42s-27.15,6.33-32.81,15.42H140a6.3,6.3,0,0,0-6.3,6.3v94.94a6.3,6.3,0,0,0,6.3,6.3h72.86a6.3,6.3,0,0,0,6.3-6.3V185.31A6.3,6.3,0,0,0,212.85,179Z"/><path class="cls-18" d="M212.85,183.52h-3.62a4.47,4.47,0,0,1-3.82-2.12c-5-8.08-16.41-13.3-29-13.3s-24,5.22-29,13.3a4.47,4.47,0,0,1-3.82,2.12H140a1.8,1.8,0,0,0-1.8,1.8v94.94A1.8,1.8,0,0,0,140,282h72.86a1.8,1.8,0,0,0,1.8-1.8V185.31A1.8,1.8,0,0,0,212.85,183.52ZM211.65,279H141.2V186.52h2.42A7.46,7.46,0,0,0,150,183c4.49-7.22,14.87-11.89,26.44-11.89s21.95,4.67,26.44,11.89a7.46,7.46,0,0,0,6.37,3.54h2.42Z"/><path class="cls-18" d="M202.65,270H150.2a1.5,1.5,0,0,0,0,3h52.45a1.5,1.5,0,0,0,0-3Z"/><path class="cls-18" d="M158.65,199.3H150.2a1.5,1.5,0,0,0,0,3h8.45a1.5,1.5,0,1,0,0-3Z"/><path class="cls-18" d="M202.76,199.3h-8.45a1.5,1.5,0,0,0,0,3h8.45a1.5,1.5,0,1,0,0-3Z"/><path class="cls-18" d="M203.4,191.21a13.36,13.36,0,0,1-5.63-5.06c-3.32-5.33-12.1-9.06-21.35-9.06s-18,3.72-21.35,9.06a13.36,13.36,0,0,1-5.63,5.06,1.49,1.49,0,0,0-.77,1.85h0a1.5,1.5,0,0,0,2,.86,16.58,16.58,0,0,0,6.91-6.19c2.76-4.43,10.66-7.64,18.8-7.64s16,3.21,18.8,7.64a16.58,16.58,0,0,0,6.92,6.19,1.5,1.5,0,0,0,2-.86h0A1.49,1.49,0,0,0,203.4,191.21Z"/><rect class="cls-19" x="138.2" y="211.42" width="76.45" height="34.9"/><text class="cls-22" transform="translate(148.99 241.7)">BEER</text><path class="cls-19" d="M184.53,197.86a7.36,7.36,0,0,0-4.75,1.73,10.58,10.58,0,0,0-3.36-10.25,10.58,10.58,0,0,0-3.36,10.25,7.36,7.36,0,0,0-4.75-1.73h-5a7.39,7.39,0,0,0,7.39,7.39h11.4a7.39,7.39,0,0,0,7.39-7.39Z"/><polygon class="cls-18" points="159.39 251.04 161.77 255.86 167.09 256.63 163.24 260.38 164.15 265.68 159.39 263.18 154.63 265.68 155.54 260.38 151.69 256.63 157.01 255.86 159.39 251.04"/><polygon class="cls-18" points="176.42 251.04 178.8 255.86 184.12 256.63 180.27 260.38 181.18 265.68 176.42 263.18 171.66 265.68 172.57 260.38 168.73 256.63 174.04 255.86 176.42 251.04"/><polygon class="cls-18" points="193.46 251.04 195.83 255.86 201.15 256.63 197.3 260.38 198.21 265.68 193.46 263.18 188.7 265.68 189.61 260.38 185.76 256.63 191.08 255.86 193.46 251.04"/><path class="cls-23" d="M341.48,151.48l-3.83-4.2a17.54,17.54,0,0,1-4.57-11.2l-.51-14.41a17.54,17.54,0,0,0-7.06-13.45,17.54,17.54,0,0,1-7.06-13.43l-1.91-52a21.93,21.93,0,0,0,.29-20.69l-1.16-2.25H275.48l-1.16,2.25a21.93,21.93,0,0,0,.29,20.69l-1.91,52a17.54,17.54,0,0,1-7.06,13.43,17.54,17.54,0,0,0-7.06,13.45l-.51,14.41a17.54,17.54,0,0,1-4.57,11.2l-3.83,4.2a17.54,17.54,0,0,0-4.58,11.82V342a13.35,13.35,0,0,0,13.35,13.35h74.27A13.35,13.35,0,0,0,346.06,342V163.3A17.54,17.54,0,0,0,341.48,151.48Z"/><path class="cls-24" d="M341.48,151.48l-3.83-4.2a17.54,17.54,0,0,1-4.57-11.2l-.51-14.41a17.54,17.54,0,0,0-7.06-13.45,17.54,17.54,0,0,1-7.06-13.43l-1.91-52a21.93,21.93,0,0,0,.29-20.69l-1.16-2.25H275.48l-1.16,2.25a21.93,21.93,0,0,0,.29,20.69l-1.91,52a17.54,17.54,0,0,1-7.06,13.43,17.54,17.54,0,0,0-7.06,13.45l-.51,14.41a17.54,17.54,0,0,1-4.57,11.2l-3.83,4.2a17.54,17.54,0,0,0-4.58,11.82V342a13.35,13.35,0,0,0,13.35,13.35h74.27A13.35,13.35,0,0,0,346.06,342V163.3A17.54,17.54,0,0,0,341.48,151.48Z"/><polygon class="cls-4" points="317.4 69.38 295.58 81.61 273.76 69.38 273.76 42.34 317.4 42.34 317.4 69.38"/><polygon class="cls-18" points="273.76 59.89 273.76 65.38 295.58 77.61 317.4 65.38 317.4 59.89 295.58 72.13 273.76 59.89"/><path class="cls-13" d="M303.92,56a7.63,7.63,0,0,0-4.93,1.8,11,11,0,0,0-3.48-10.63A11,11,0,0,0,292,57.81a7.63,7.63,0,0,0-4.93-1.8h-5.17a7.67,7.67,0,0,0,7.67,7.67h11.83A7.67,7.67,0,0,0,309.09,56Z"/><path class="cls-9" d="M341.48,151.48l-3.83-4.2a17.54,17.54,0,0,1-4.57-11.2l-.51-14.41a17.45,17.45,0,0,0-7-13.43,17.54,17.54,0,0,1-7.09-13.46l-1.91-52c-2.21,28.32-5.68,42.87-7.43,48.77a14.54,14.54,0,0,0,1.3,11.49l.08.13A33.69,33.69,0,0,1,315,119.81c0,.64,0,1.27,0,1.86l.51,14.41a17.54,17.54,0,0,0,4.57,11.2l3.83,4.2a17.54,17.54,0,0,1,4.58,11.82V342a13.35,13.35,0,0,1-13.35,13.35h17.48A13.35,13.35,0,0,0,346.06,342V163.3A17.54,17.54,0,0,0,341.48,151.48Z"/><path class="cls-7" d="M284.92,139.19a18.74,18.74,0,0,1-8.82-19.28.76.76,0,0,0,0-.09c.07-3.35,1.33-8.07,2.33-11.37a14.4,14.4,0,0,1,10.19-9.89l.11,0c1.79-.43,4.54-.25,6.12-1.16a1.64,1.64,0,0,0-.72-.32C279.07,92.89,278,83.6,274.61,42.76l-1.91,52a17.44,17.44,0,0,1-7.05,13.42,17.45,17.45,0,0,0-7.07,13.46l-.51,14.41a17.54,17.54,0,0,1-4.57,11.2l-3.83,4.2a17.54,17.54,0,0,0-4.58,11.82V342a13.35,13.35,0,0,0,13.35,13.35h17.48A13.35,13.35,0,0,1,262.57,342V163.3s0-.09,0-.13a13.16,13.16,0,0,1,11.06-12.74c7.51-1.28,18.91-3.43,19.09-4.79S289.19,141.68,284.92,139.19Z"/><path class="cls-14" d="M332.71,357.54H258.44A15.55,15.55,0,0,1,242.91,342V163.3A19.68,19.68,0,0,1,248.06,150l3.83-4.2a15.37,15.37,0,0,0,4-9.81l.51-14.41a19.62,19.62,0,0,1,7.94-15.13,15.28,15.28,0,0,0,6.18-11.76l1.88-51.44a24.07,24.07,0,0,1,0-22.2l1.77-3.43H317l1.77,3.43a24.06,24.06,0,0,1,0,22.2l1.88,51.44a15.28,15.28,0,0,0,6.18,11.76,19.62,19.62,0,0,1,7.94,15.13l.51,14.41a15.37,15.37,0,0,0,4,9.81l3.83,4.2a19.68,19.68,0,0,1,5.15,13.29V342A15.55,15.55,0,0,1,332.71,357.54ZM276.81,22l-.55,1.07a19.71,19.71,0,0,0,.26,18.63l.29.53-1.93,52.63a19.63,19.63,0,0,1-7.94,15.1,15.28,15.28,0,0,0-6.18,11.78l-.51,14.41a19.74,19.74,0,0,1-5.14,12.6l-3.83,4.2a15.32,15.32,0,0,0-4,10.35V342a11.18,11.18,0,0,0,11.17,11.17h74.27A11.18,11.18,0,0,0,343.88,342V163.3a15.32,15.32,0,0,0-4-10.35l-3.83-4.2a19.74,19.74,0,0,1-5.14-12.6l-.51-14.41A15.28,15.28,0,0,0,324.21,110a19.63,19.63,0,0,1-7.94-15.1l-1.93-52.63.29-.53a19.7,19.7,0,0,0,.26-18.63L314.35,22Z"/><path class="cls-11" d="M287,62.6h0a3.06,3.06,0,0,0-3.17,2.94l-1.08,29.62a27.44,27.44,0,0,1-9,19.4,3,3,0,0,0-.37,4.06h0a3.06,3.06,0,0,0,4.5.45,33.53,33.53,0,0,0,11-23.68l1.08-29.62A3.06,3.06,0,0,0,287,62.6Z"/><path class="cls-11" d="M271,136.54a3,3,0,0,0-3.13,2.61,27.61,27.61,0,0,1-7,14.91L259.16,156a3.06,3.06,0,0,0,.2,4.32h0a3.06,3.06,0,0,0,4.32-.2l1.77-1.94a33.74,33.74,0,0,0,8.5-18.18A3.06,3.06,0,0,0,271,136.54Z"/><rect class="cls-11" x="255.14" y="171.68" width="6.12" height="149.27" rx="3.06" ry="3.06"/><path class="cls-18" d="M310.58,8.73h-30a12.7,12.7,0,0,0-12.7,12.7h0A5.12,5.12,0,0,0,273,26.55h45.16a5.12,5.12,0,0,0,5.12-5.12h0A12.7,12.7,0,0,0,310.58,8.73Z"/><path class="cls-14" d="M318.16,28.73H273a7.32,7.32,0,0,1-7.31-7.31A14.9,14.9,0,0,1,280.57,6.54h30a14.9,14.9,0,0,1,14.88,14.88A7.32,7.32,0,0,1,318.16,28.73ZM280.57,10.91a10.53,10.53,0,0,0-10.51,10.51A2.94,2.94,0,0,0,273,24.37h45.16a2.94,2.94,0,0,0,2.94-2.94,10.53,10.53,0,0,0-10.51-10.51Z"/><path class="cls-14" d="M301.55,20.76a4,4,0,0,0-4,4h8.08A4,4,0,0,0,301.55,20.76Z"/><path class="cls-14" d="M289.61,20.76a4,4,0,0,0-4,4h8.08A4,4,0,0,0,289.61,20.76Z"/><path class="cls-14" d="M313.49,20.76a4,4,0,0,0-4,4h8.08A4,4,0,0,0,313.49,20.76Z"/><path class="cls-14" d="M277.67,20.76a4,4,0,0,0-4,4h8.08A4,4,0,0,0,277.67,20.76Z"/><path class="cls-14" d="M295.58,345.71A262,262,0,0,0,247.27,350a14.58,14.58,0,0,0,11.29,5.34H332.6A14.58,14.58,0,0,0,343.89,350,262,262,0,0,0,295.58,345.71Z"/><path class="cls-4" d="M333,185.49a90.42,90.42,0,0,0-74.81,0,11,11,0,0,0-6.31,10v96.71a11,11,0,0,0,6.31,10,90.42,90.42,0,0,0,74.81,0,11,11,0,0,0,6.31-10V195.53A11,11,0,0,0,333,185.49Z"/><path class="cls-18" d="M295.58,304.75a83.62,83.62,0,0,1-35-7.57,5.42,5.42,0,0,1-3.06-4.94V195.53a5.42,5.42,0,0,1,3.06-4.94,84.79,84.79,0,0,1,70.06,0,5.42,5.42,0,0,1,3.06,4.94v96.71a5.42,5.42,0,0,1-3.06,4.94A83.62,83.62,0,0,1,295.58,304.75Zm0-118.66a80.53,80.53,0,0,0-33.74,7.29,2.34,2.34,0,0,0-1.28,2.15v96.71a2.34,2.34,0,0,0,1.28,2.15,81.74,81.74,0,0,0,67.47,0,2.34,2.34,0,0,0,1.28-2.15V195.53a2.34,2.34,0,0,0-1.28-2.15A80.53,80.53,0,0,0,295.58,186.09Z"/><rect class="cls-13" x="253.4" y="224.54" width="84.36" height="38.69"/><polygon class="cls-14" points="253.4 263.23 257.49 271.19 257.49 263.23 253.4 263.23"/><polygon class="cls-14" points="337.76 224.54 333.66 216.58 333.67 224.54 337.76 224.54"/><path class="cls-18" d="M308,207.53a11.28,11.28,0,0,0-7.29,2.66,16.21,16.21,0,0,0-5.15-15.71,16.21,16.21,0,0,0-5.15,15.71,11.28,11.28,0,0,0-7.29-2.66h-7.64a11.33,11.33,0,0,0,11.33,11.33h17.48a11.33,11.33,0,0,0,11.33-11.33Z"/><text class="cls-25" transform="translate(267.51 256.25)">BEER</text><path class="cls-18" d="M322.41,269.66H268.75a1.53,1.53,0,0,0,0,3.07h53.66a1.53,1.53,0,0,0,0-3.07Z"/><path class="cls-18" d="M322.41,277.71H268.75a1.53,1.53,0,1,0,0,3.07h53.66a1.53,1.53,0,1,0,0-3.07Z"/><path class="cls-18" d="M322.41,285.77H268.75a1.53,1.53,0,1,0,0,3.07h53.66a1.53,1.53,0,1,0,0-3.07Z"/><path class="cls-26" d="M451,133.2a19.37,19.37,0,0,1-10.89-16.28l-4.4-74.16A21.93,21.93,0,0,0,436,22.07l-1.16-2.25H394.64l-1.16,2.25a21.93,21.93,0,0,0,.29,20.69l-4.4,74.16a19.37,19.37,0,0,1-10.89,16.28,19.37,19.37,0,0,0-10.92,17.43V342a13.35,13.35,0,0,0,13.35,13.35h67.67A13.35,13.35,0,0,0,461.92,342V150.63A19.37,19.37,0,0,0,451,133.2Z"/><path class="cls-27" d="M451,133.2a19.37,19.37,0,0,1-10.89-16.28l-4.4-74.16A21.93,21.93,0,0,0,436,22.07l-1.16-2.25H394.64l-1.16,2.25a21.93,21.93,0,0,0,.29,20.69l-4.4,74.16a19.37,19.37,0,0,1-10.89,16.28,19.37,19.37,0,0,0-10.92,17.43V342a13.35,13.35,0,0,0,13.35,13.35h67.67A13.35,13.35,0,0,0,461.92,342V150.63A19.37,19.37,0,0,0,451,133.2Z"/><rect class="cls-4" x="391.73" y="62.12" width="46.01" height="23.71"/><rect class="cls-28" x="391.73" y="73.97" width="46.01" height="11.85"/><circle class="cls-18" cx="414.73" cy="73.97" r="9.97"/><path class="cls-4" d="M414.73,65.59A8.38,8.38,0,1,0,423.12,74,8.39,8.39,0,0,0,414.73,65.59Zm0,15.41a7,7,0,1,1,7-7A7,7,0,0,1,414.73,81Z"/><path class="cls-4" d="M414.41,77.33h-2.24A3.32,3.32,0,0,1,408.85,74h2.24a3.32,3.32,0,0,1,3.32,3.32Z"/><path class="cls-4" d="M415.06,77.33h2.24A3.32,3.32,0,0,0,420.62,74h-2.24a3.32,3.32,0,0,0-3.32,3.32Z"/><path class="cls-4" d="M414.73,68.52a4.74,4.74,0,0,0,0,7.15A4.74,4.74,0,0,0,414.73,68.52Z"/><path class="cls-9" d="M450.81,133.11a19.37,19.37,0,0,1-10.71-16.19l-4.4-74.16c-3.12,43.18-7.69,61.54-10.52,69.12a17,17,0,0,0,7.2,20.73q.47.27,1,.51a19.64,19.64,0,0,1,11.11,17.52V342a13.35,13.35,0,0,1-13.35,13.35h17.48A13.35,13.35,0,0,0,461.92,342V150.63A19.64,19.64,0,0,0,450.81,133.11Z"/><path class="cls-7" d="M379.21,133.11a19.37,19.37,0,0,0,10.71-16.19l4.4-74.16c3.32,89.84,14.44,71.58,20.41,79.31,5.06,6.55-9.9,6.44-17.09,10.53q-.47.27-1,.51a19.64,19.64,0,0,0-11.11,17.52V342a13.35,13.35,0,0,0,13.35,13.35H381.46A13.35,13.35,0,0,1,368.11,342V150.63A19.64,19.64,0,0,1,379.21,133.11Z"/><path class="cls-29" d="M448.57,357.54H380.9A15.55,15.55,0,0,1,365.36,342V150.63a21.67,21.67,0,0,1,12.16-19.39,17.2,17.2,0,0,0,9.66-14.44l4.36-73.54a24.06,24.06,0,0,1,0-22.18l1.77-3.43h42.85l1.77,3.43a24.06,24.06,0,0,1,0,22.18l4.36,73.54a17.19,17.19,0,0,0,9.66,14.44h0a21.67,21.67,0,0,1,12.16,19.39V342A15.55,15.55,0,0,1,448.57,357.54ZM396,22l-.55,1.07a19.7,19.7,0,0,0,.26,18.63l.31.55L391.54,117a21.57,21.57,0,0,1-12.12,18.12,17.28,17.28,0,0,0-9.69,15.46V342a11.18,11.18,0,0,0,11.17,11.17h67.67A11.18,11.18,0,0,0,459.73,342V150.63A17.28,17.28,0,0,0,450,135.17h0A21.57,21.57,0,0,1,437.92,117l-4.44-74.79.31-.55a19.7,19.7,0,0,0,.26-18.63L433.5,22Z"/><g class="cls-20"><path class="cls-21" d="M405.07,73.57h0a3.06,3.06,0,0,0-3.23,2.87l-2.44,41.08a29.63,29.63,0,0,1-8,18.52,3,3,0,0,0,0,4.07,3.07,3.07,0,0,0,4.54.08,35.8,35.8,0,0,0,9.66-22.31l2.44-41.08A3.06,3.06,0,0,0,405.07,73.57Z"/><rect class="cls-21" x="377.6" y="150.63" width="6.12" height="129.29" rx="3.06" ry="3.06"/></g><path class="cls-4" d="M429.74,8.73h-30A12.7,12.7,0,0,0,387,21.43h0a5.12,5.12,0,0,0,5.12,5.12h45.16a5.12,5.12,0,0,0,5.12-5.12h0A12.7,12.7,0,0,0,429.74,8.73Z"/><path class="cls-29" d="M437.31,28.73H392.15a7.32,7.32,0,0,1-7.31-7.31A14.9,14.9,0,0,1,399.73,6.54h30a14.9,14.9,0,0,1,14.88,14.88A7.32,7.32,0,0,1,437.31,28.73ZM399.73,10.91a10.53,10.53,0,0,0-10.51,10.51,2.94,2.94,0,0,0,2.94,2.94h45.16a2.94,2.94,0,0,0,2.94-2.94,10.53,10.53,0,0,0-10.51-10.51Z"/><path class="cls-29" d="M420.7,20.76a4,4,0,0,0-4,4h8.08A4,4,0,0,0,420.7,20.76Z"/><path class="cls-29" d="M408.76,20.76a4,4,0,0,0-4,4h8.08A4,4,0,0,0,408.76,20.76Z"/><path class="cls-29" d="M432.65,20.76a4,4,0,0,0-4,4h8.08A4,4,0,0,0,432.65,20.76Z"/><path class="cls-29" d="M396.82,20.76a4,4,0,0,0-4,4h8.08A4,4,0,0,0,396.82,20.76Z"/><path class="cls-29" d="M414.73,346.54a239.4,239.4,0,0,0-44.15,3.95,13.32,13.32,0,0,0,10.31,4.88h67.67a13.32,13.32,0,0,0,10.31-4.88A239.4,239.4,0,0,0,414.73,346.54Z"/><rect class="cls-4" x="373.16" y="187.49" width="83.15" height="115.02"/><rect class="cls-28" x="373.16" y="245" width="83.15" height="57.51"/><circle class="cls-18" cx="414.73" cy="252.33" r="24.8"/><path class="cls-4" d="M414.73,231.49a20.85,20.85,0,1,0,20.85,20.85A20.87,20.87,0,0,0,414.73,231.49Zm0,38.3a17.46,17.46,0,1,1,17.46-17.46A17.48,17.48,0,0,1,414.73,269.79Z"/><path class="cls-4" d="M413.93,260.69h-5.57a8.26,8.26,0,0,1-8.26-8.26h5.57a8.26,8.26,0,0,1,8.26,8.26Z"/><path class="cls-4" d="M415.54,260.69h5.57a8.26,8.26,0,0,0,8.26-8.26H423.8a8.26,8.26,0,0,0-8.26,8.26Z"/><path class="cls-4" d="M414.74,238.78a11.78,11.78,0,0,0,0,17.78A11.78,11.78,0,0,0,414.74,238.78Z"/><text class="cls-30" transform="translate(384.75 224.02)">BEER</text><path class="cls-18" d="M441.57,283.12H387.9a1.53,1.53,0,0,0,0,3.07h53.66a1.53,1.53,0,1,0,0-3.07Z"/><path class="cls-18" d="M441.57,291.17H387.9a1.53,1.53,0,0,0,0,3.07h53.66a1.53,1.53,0,1,0,0-3.07Z"/></g></g></svg>